<svg xmlns="http://www.w3.org/2000/svg" xmlns:xlink="http://www.w3.org/1999/xlink" viewBox="0,0,255.99828,255.99828" width="240px" height="240px" fill-rule="nonzero"><g transform="translate(15.3599,15.3599) scale(0.88,0.88)"><g fill="none" fill-rule="nonzero" stroke="none" stroke-width="1" stroke-linecap="butt" stroke-linejoin="miter" stroke-miterlimit="10" stroke-dasharray="" stroke-dashoffset="0" font-family="none" font-weight="none" font-size="none" text-anchor="none" style="mix-blend-mode: normal"><g transform="translate(9.36486,13.9473) rotate(-2) scale(5.33333,5.33333)"><path d="M19.861,36.253c1.21,-1.321 4.199,-2.928 4.979,-3.735c0.781,-0.809 1.626,-2.111 0.802,-2.965c-0.823,-0.851 -2.585,2.2 -4.527,0.19c-1.254,-1.301 0.028,-3.372 1.089,-4.676l-1.545,-1.602c-0.839,0.647 -1.654,0.956 -2.203,0.386c-0.921,-0.953 -0.47,-2.214 0.211,-3.21c0.645,-0.943 1.517,-1.63 0.942,-2.227c-0.618,-0.64 -2.275,-0.731 -4.078,1.136c-1.803,1.867 -2.54,4.58 -3.877,5.967c-1.999,2.071 -4.357,1.185 -7.066,3.993c-3.901,4.042 0.396,8.486 2.128,10.28c1.732,1.794 6.063,6.671 9.914,2.683c2.911,-3.016 2.02,-4.899 3.231,-6.22z" fill="#3c3b6e"></path><path d="M18.378,24.92c-0.13,-0.032 -0.206,-0.045 -0.167,-0.02c-0.001,-0.002 -0.002,-0.002 -0.004,-0.002c-1.296,-0.155 -4.481,0.906 -7.263,5.02c-0.79,1.169 -0.641,2.739 0.351,3.742c1.01,1.021 2.245,2.269 2.865,2.89c2.163,2.163 -2.477,4.136 -2.282,5.25c0.173,0.992 1.97,1.213 3.943,-0.76c0.982,-0.982 1.945,-4.196 2.125,-4.602c1.487,-3.35 6.365,-3.201 7.045,-5.886c-0.802,0.438 -2.695,1.823 -4.556,-0.102c-0.295,-0.307 -0.603,-0.762 -0.734,-1.388c0.021,-0.103 0.052,-0.19 0.077,-0.287l-1.018,-3.758c-0.136,-0.035 -0.268,-0.071 -0.373,-0.096" fill="#e43400"></path><path d="M10.797,39.986c-0.382,0.396 -1.001,0.396 -1.383,0l-2.766,-2.867c-0.384,-0.396 -0.384,-1.036 0,-1.433l0.691,-0.716c0.382,-0.396 1.001,-0.396 1.383,0l2.766,2.865c0.382,0.396 0.382,1.037 0,1.433z" fill="#ffffff"></path><path d="M16.374,31.523c-0.383,0.396 -1.001,0.396 -1.384,0l-1.266,-1.365c-0.382,-0.396 -0.382,-1.037 0,-1.434v0c0.382,-0.396 1.001,-0.396 1.383,0l1.267,1.366c0.383,0.396 0.383,1.038 0,1.433z" fill="#3c3b6e"></path><path d="M15.793,34.784c-0.383,0.396 -1.001,0.396 -1.384,0l-1.266,-1.365c-0.382,-0.396 -0.382,-1.037 0,-1.434v0c0.382,-0.396 1.001,-0.396 1.383,0l1.267,1.366c0.383,0.396 0.383,1.038 0,1.433z" fill="#3c3b6e"></path><path d="M42.04,5.741c-0.241,0.135 -0.615,-0.009 -0.75,-0.25l-1.063,-1.947c-0.135,-0.241 -0.049,-0.546 0.192,-0.681v0c0.241,-0.135 0.546,-0.049 0.681,0.192l1.063,1.948c0.135,0.242 0.118,0.605 -0.123,0.738z" fill="#ffffff"></path><path d="M43.801,4.885c-0.241,0.135 -0.615,-0.009 -0.75,-0.25l-1.063,-1.947c-0.135,-0.241 -0.049,-0.546 0.192,-0.681v0c0.241,-0.135 0.546,-0.049 0.681,0.192l1.063,1.948c0.135,0.242 0.118,0.605 -0.123,0.738z" fill="#ffffff"></path><path d="M40.625,7.33c-0.241,0.135 -0.546,0.049 -0.681,-0.192l-1.463,-2.619c-0.135,-0.24 -0.049,-0.545 0.192,-0.68v0c0.241,-0.135 0.546,-0.049 0.681,0.192l1.463,2.619c0.135,0.242 0.049,0.546 -0.192,0.68z" fill="#ffffff"></path><path d="M38.879,8.306c-0.241,0.135 -0.546,0.049 -0.681,-0.192l-1.463,-2.619c-0.135,-0.241 -0.048,-0.546 0.193,-0.681v0c0.241,-0.134 0.545,-0.048 0.68,0.193l1.463,2.618c0.135,0.241 0.049,0.546 -0.192,0.681z" fill="#ffffff"></path><path d="M45.438,3.437c-0.849,-0.879 -1.981,-0.219 -1.981,-0.219l-6.457,3.311l-0.884,1.788l-0.116,1.683l1.874,0.078l3.082,-0.257c0,0 2.228,-3.85 3.073,-4.262c0.845,-0.413 1.409,-0.361 1.409,-0.361c0,0 0.849,-0.88 0,-1.761z" fill="#e43400"></path><path d="M16.235,27.137l19.881,-18.82l1.768,1.767l-18.821,19.882z" fill="#3c3b6e"></path></g></g></g></svg>